<?xml version="1.0" standalone="no"?>
<!DOCTYPE svg PUBLIC "-//W3C//DTD SVG 20010904//EN"
 "http://www.w3.org/TR/2001/REC-SVG-20010904/DTD/svg10.dtd">
<svg version="1.0" xmlns="http://www.w3.org/2000/svg"
 width="3543.000000pt" height="3543.000000pt" viewBox="0 0 3543.000000 3543.000000"
 preserveAspectRatio="xMidYMid meet">

<g transform="translate(0.000000,3543.000000) scale(0.100000,-0.100000)"
fill="#000000" stroke="none">
<path d="M6855 23266 c-188 -37 -366 -137 -473 -265 -26 -31 -468 -479 -983
-996 -514 -517 -952 -962 -971 -990 -115 -161 -166 -339 -155 -538 21 -374
283 -680 653 -762 107 -24 310 -17 409 15 183 58 252 110 565 424 140 141 258
256 262 256 5 0 8 -637 8 -1415 l0 -1415 380 0 380 0 0 -385 0 -385 -380 0
-380 0 0 -385 0 -385 375 0 375 0 2 248 3 247 253 3 252 2 -2 -252 -3 -253
-247 -3 -248 -2 0 -385 0 -385 -381 0 -380 0 4 -357 c4 -395 7 -416 72 -560
101 -221 307 -396 540 -459 95 -25 275 -30 376 -10 270 55 496 240 603 494 61
144 56 -183 56 4205 l0 4014 -25 89 c-101 347 -403 584 -765 599 -66 3 -131 0
-175 -9z m305 -5561 l0 -115 -115 0 -115 0 0 115 0 115 115 0 115 0 0 -115z"/>
<path d="M16941 23259 c-222 -43 -437 -195 -553 -392 -49 -81 -93 -206 -108
-302 -7 -49 -10 -1257 -8 -4030 3 -3734 4 -3964 21 -4025 61 -226 184 -404
357 -516 161 -104 290 -139 490 -131 147 5 222 23 335 79 220 111 386 319 441
554 13 58 15 520 14 4057 -1 4369 4 4044 -60 4203 -98 246 -309 426 -579 495
-80 20 -265 25 -350 8z"/>
<path d="M27487 23255 c-298 -57 -547 -274 -641 -560 -48 -149 -46 54 -46
-4105 0 -2360 4 -3922 10 -3980 12 -123 32 -197 80 -296 80 -165 212 -299 375
-380 130 -64 224 -86 370 -86 139 0 236 21 353 77 116 55 177 104 338 272 83
87 469 473 858 858 l708 699 876 -877 c483 -483 894 -889 915 -903 64 -43 177
-92 262 -115 112 -30 298 -30 409 0 241 64 431 218 541 436 65 128 87 223 88
370 0 176 -42 322 -132 460 -26 39 -346 366 -913 933 l-873 872 878 878 c483
482 889 894 903 915 43 64 93 178 115 262 25 95 30 277 10 370 -57 264 -243
493 -488 601 -193 86 -473 86 -666 0 -136 -60 -171 -92 -997 -920 -443 -444
-1155 -1154 -1583 -1578 l-777 -771 0 2939 c1 2871 0 2941 -19 3014 -76 295
-304 525 -596 600 -106 28 -258 34 -358 15z"/>
<path d="M11895 21330 c-893 -73 -1703 -439 -2334 -1055 -344 -336 -565 -642
-775 -1075 -176 -363 -285 -734 -343 -1160 -26 -194 -26 -726 0 -920 117 -865
477 -1601 1077 -2200 596 -597 1331 -957 2190 -1076 157 -21 608 -30 781 -15
945 83 1806 503 2446 1193 433 467 721 998 894 1648 87 328 60 563 -92 790
-62 93 -136 167 -228 229 -77 52 -122 74 -221 107 -79 26 -97 28 -245 28 -141
1 -169 -2 -235 -22 -225 -71 -403 -215 -509 -412 -48 -90 -75 -174 -95 -295
-32 -187 -154 -475 -281 -665 -356 -531 -907 -865 -1535 -931 -152 -16 -423
-7 -570 20 -344 61 -682 213 -947 426 -83 66 -245 228 -315 312 -222 272 -377
610 -439 963 -27 147 -36 418 -20 570 66 628 404 1185 931 1533 588 388 1321
451 1983 172 48 -21 158 -77 244 -127 85 -49 181 -99 212 -112 97 -41 205 -61
326 -59 136 2 236 26 360 87 468 231 604 847 277 1258 -70 87 -169 169 -306
253 -458 279 -970 454 -1521 520 -156 19 -557 27 -710 15z"/>
<path d="M18915 20001 c-155 -41 -265 -101 -373 -205 -161 -154 -240 -326
-262 -568 -13 -141 -13 -4430 0 -4573 20 -227 84 -380 219 -527 103 -111 228
-191 376 -238 96 -31 310 -39 409 -16 153 36 281 103 388 204 118 112 201 247
245 402 17 62 18 165 18 2460 0 2295 -1 2398 -18 2460 -43 151 -123 285 -233
391 -115 110 -240 178 -392 213 -98 22 -285 21 -377 -3z"/>
<path d="M23185 19999 c-995 -54 -1908 -597 -2444 -1454 -138 -220 -279 -543
-350 -801 -79 -287 -105 -488 -105 -819 0 -277 10 -388 59 -631 162 -803 669
-1532 1377 -1980 140 -88 435 -233 590 -288 527 -189 1107 -233 1649 -125 144
28 203 44 364 96 338 110 648 276 945 506 134 105 393 362 500 497 175 220
350 519 448 765 22 55 55 131 72 169 52 114 72 206 73 341 1 133 -10 202 -54
316 -95 248 -311 440 -574 511 -114 30 -307 30 -420 -1 -255 -69 -474 -258
-565 -487 -13 -33 -31 -77 -40 -99 -9 -22 -31 -77 -49 -122 -167 -420 -552
-742 -1012 -845 -139 -31 -436 -33 -568 -4 -512 111 -907 463 -1066 950 -47
144 -66 271 -66 439 0 236 42 412 146 622 77 155 160 268 286 390 193 186 424
309 689 366 153 33 421 34 569 1 142 -32 262 -75 351 -127 212 -123 442 -154
667 -89 276 79 483 285 573 569 31 99 39 282 15 396 -44 217 -171 408 -355
531 -90 61 -298 162 -435 214 -408 152 -833 217 -1270 193z"/>
<path d="M4620 19380 l0 -140 140 0 140 0 0 140 0 140 -140 0 -140 0 0 -140z"/>
<path d="M3750 19185 l0 -165 165 0 165 0 0 165 0 165 -165 0 -165 0 0 -165z"/>
<path d="M4200 18705 l0 -225 218 2 217 3 0 220 0 220 -217 3 -218 2 0 -225z"/>
<path d="M5520 18665 l0 -265 258 2 257 3 0 260 0 260 -257 3 -258 2 0 -265z"/>
<path d="M2820 18795 l0 -105 100 0 100 0 0 105 0 105 -100 0 -100 0 0 -105z"/>
<path d="M3410 18090 l0 -350 335 0 335 0 0 350 0 350 -335 0 -335 0 0 -350z"/>
<path d="M4640 17970 l0 -390 380 0 380 0 0 -385 0 -385 -380 0 -380 0 0 -385
0 -385 380 0 380 0 0 385 0 385 380 0 380 0 0 385 0 385 -380 0 -380 0 0 390
0 390 -380 0 -380 0 0 -390z"/>
<path d="M23298 18082 c-58 -35 -58 -37 -58 -549 0 -354 3 -474 13 -493 16
-32 73 -70 104 -70 40 0 93 30 111 64 15 28 17 80 20 493 3 449 2 463 -18 502
-33 67 -112 91 -172 53z"/>
<path d="M2430 17790 l0 -150 140 0 140 0 0 150 0 150 -140 0 -140 0 0 -150z"/>
<path d="M23011 17786 c-169 -69 -351 -224 -442 -377 -51 -85 -94 -196 -115
-291 -20 -94 -20 -281 0 -374 75 -349 330 -615 682 -710 106 -29 351 -27 459
4 331 94 579 351 662 688 23 94 23 314 0 408 -78 314 -304 567 -596 667 -30
11 -56 19 -58 19 -1 0 -3 -58 -3 -129 0 -127 0 -129 23 -135 47 -11 173 -104
235 -171 114 -124 175 -283 175 -455 0 -115 -20 -198 -73 -306 -105 -214 -326
-358 -570 -371 -124 -7 -219 13 -335 71 -161 79 -284 219 -342 390 -25 73 -28
94 -28 216 0 122 3 143 29 218 55 163 176 303 327 382 l79 41 0 125 c0 93 -3
124 -12 124 -7 0 -51 -16 -97 -34z"/>
<path d="M3810 17170 l0 -280 265 0 265 0 0 280 0 280 -265 0 -265 0 0 -280z"/>
<path d="M3300 16625 l0 -145 145 0 145 0 0 145 0 145 -145 0 -145 0 0 -145z"/>
<path d="M3937 16283 c-4 -3 -7 -98 -7 -210 l0 -203 205 0 205 0 0 210 0 210
-198 0 c-109 0 -202 -3 -205 -7z"/>
<path d="M5630 15535 l0 -275 265 0 265 0 0 275 0 275 -265 0 -265 0 0 -275z"/>
<path d="M9012 13185 c-29 -41 -52 -77 -52 -80 0 -3 11 -5 24 -5 19 0 40 19
85 74 34 41 61 77 61 80 0 3 -15 6 -33 6 -30 0 -38 -7 -85 -75z"/>
<path d="M13080 12620 l0 -480 35 0 35 0 0 480 0 480 -35 0 -35 0 0 -480z"/>
<path d="M23060 12620 l0 -480 35 0 35 0 0 480 0 480 -35 0 -35 0 0 -480z"/>
<path d="M6420 13041 c-105 -32 -189 -118 -221 -223 -29 -96 -23 -214 15 -293
33 -66 101 -128 163 -149 59 -20 184 -21 251 -1 51 15 52 16 52 55 l0 38 -28
-14 c-16 -8 -53 -19 -83 -24 -178 -34 -309 78 -309 265 0 129 61 235 158 272
58 22 162 22 216 -1 21 -9 40 -16 42 -16 2 0 4 18 4 40 0 37 -2 40 -37 49 -43
12 -186 13 -223 2z"/>
<path d="M7107 13033 c-104 -35 -177 -135 -197 -270 -25 -160 41 -309 165
-376 34 -19 56 -22 145 -22 124 0 161 15 231 93 63 70 84 134 84 257 0 94 -3
106 -33 168 -38 76 -93 129 -160 151 -58 20 -173 19 -235 -1z m218 -68 c42
-17 84 -62 109 -115 31 -68 30 -227 -2 -292 -81 -164 -301 -182 -400 -33 -56
84 -63 231 -17 329 53 112 191 161 310 111z"/>
<path d="M10378 13031 c-107 -42 -179 -130 -204 -252 -35 -168 27 -321 158
-391 37 -20 58 -23 153 -23 139 0 175 13 175 61 0 19 -2 34 -4 34 -2 0 -21 -7
-42 -16 -51 -22 -177 -23 -224 -2 -109 47 -164 174 -140 319 27 161 159 251
318 218 31 -6 65 -15 75 -20 15 -9 17 -5 17 30 0 35 -3 40 -31 50 -51 18 -197
13 -251 -8z"/>
<path d="M11537 13036 c-142 -51 -214 -177 -205 -360 5 -108 26 -163 88 -230
60 -65 129 -89 240 -84 70 3 94 9 138 33 100 54 152 148 160 286 7 127 -21
213 -91 284 -35 34 -69 57 -101 68 -60 20 -176 22 -229 3z m232 -84 c29 -18
54 -45 75 -82 29 -52 31 -60 31 -165 0 -103 -2 -114 -29 -162 -91 -164 -319
-158 -409 11 -19 35 -22 57 -22 151 0 102 2 113 27 157 72 122 212 161 327 90z"/>
<path d="M14493 13036 c-81 -26 -156 -96 -195 -183 -34 -74 -37 -219 -7 -297
30 -82 95 -149 168 -177 46 -17 72 -20 151 -17 117 5 154 20 158 66 4 37 -1
38 -54 15 -59 -25 -178 -23 -230 5 -55 28 -109 92 -124 147 -18 65 -9 200 18
251 26 52 89 108 138 125 52 18 160 15 208 -5 21 -9 40 -16 42 -16 2 0 4 18 4
40 0 37 -2 40 -37 49 -52 15 -189 12 -240 -3z"/>
<path d="M15193 13034 c-56 -20 -129 -86 -158 -145 -38 -73 -52 -173 -37 -260
29 -169 126 -259 288 -267 111 -6 170 14 239 82 71 69 97 139 98 261 2 156
-51 258 -164 314 -55 27 -72 31 -143 30 -45 0 -100 -7 -123 -15z m175 -55 c66
-14 123 -63 152 -131 33 -75 33 -211 1 -283 -43 -96 -107 -138 -211 -139 -51
0 -75 5 -110 25 -120 66 -165 261 -94 407 29 59 74 98 136 117 54 17 66 17
126 4z"/>
<path d="M16885 13035 c-53 -19 -112 -82 -121 -130 -9 -51 12 -114 50 -150 18
-16 73 -51 123 -77 49 -27 102 -59 116 -74 50 -49 43 -114 -16 -158 -41 -30
-146 -27 -220 7 l-57 26 0 -44 0 -44 57 -17 c77 -22 202 -16 260 14 66 34 99
101 87 176 -8 50 -71 119 -139 153 -145 73 -185 109 -185 168 0 38 48 85 99
96 49 11 122 3 163 -17 38 -20 39 -19 36 28 -2 35 -7 43 -28 49 -45 12 -184 9
-225 -6z"/>
<path d="M19597 13036 c-142 -51 -214 -177 -205 -360 5 -108 26 -163 88 -230
60 -65 129 -89 240 -84 70 3 94 9 138 33 100 54 152 148 160 286 7 127 -21
213 -91 284 -35 34 -69 57 -101 68 -60 20 -176 22 -229 3z m232 -84 c29 -18
54 -45 75 -82 29 -52 31 -60 31 -165 0 -103 -2 -114 -29 -162 -91 -164 -319
-158 -409 11 -19 35 -22 57 -22 151 0 102 2 113 27 157 72 122 212 161 327 90z"/>
<path d="M24359 13023 c-69 -36 -99 -79 -99 -145 0 -89 33 -127 181 -205 50
-26 102 -60 115 -76 30 -36 32 -94 4 -130 -42 -53 -168 -57 -264 -8 l-36 19 0
-42 c0 -37 4 -45 28 -56 46 -21 192 -25 249 -6 102 34 150 134 109 229 -20 47
-59 79 -166 136 -111 60 -140 88 -140 137 0 47 14 70 53 91 41 21 148 21 200
0 l37 -16 0 40 c0 50 -20 59 -134 59 -70 0 -91 -4 -137 -27z"/>
<path d="M27673 13036 c-81 -26 -156 -96 -195 -183 -34 -74 -37 -218 -8 -298
32 -84 105 -156 183 -181 56 -17 57 -18 57 -55 0 -35 2 -38 31 -41 71 -7 63
-71 -10 -76 -34 -3 -41 -7 -41 -24 0 -19 4 -20 53 -14 63 9 94 27 103 62 10
38 -10 70 -50 84 -24 7 -36 18 -36 29 0 15 11 19 63 23 88 7 121 25 125 66 4
37 -1 38 -54 15 -59 -25 -178 -23 -230 5 -55 28 -109 92 -124 147 -18 65 -9
200 18 251 26 52 89 108 138 125 52 18 160 15 208 -5 21 -9 40 -16 42 -16 2 0
4 18 4 40 0 37 -2 40 -37 49 -52 15 -189 12 -240 -3z"/>
<path d="M28373 13034 c-56 -20 -129 -86 -158 -145 -38 -73 -52 -173 -37 -260
29 -169 126 -259 288 -267 111 -6 170 14 239 82 71 69 97 139 98 261 2 156
-51 258 -164 314 -55 27 -72 31 -143 30 -45 0 -100 -7 -123 -15z m175 -55 c66
-14 123 -63 152 -131 33 -75 33 -211 1 -283 -43 -96 -107 -138 -211 -139 -51
0 -75 5 -110 25 -120 66 -165 261 -94 407 29 59 74 98 136 117 54 17 66 17
126 4z"/>
<path d="M29169 13023 c-69 -36 -99 -79 -99 -145 0 -89 33 -127 181 -205 50
-26 102 -60 115 -76 30 -36 32 -94 4 -130 -42 -53 -168 -57 -264 -8 l-36 19 0
-42 c0 -37 4 -45 28 -56 46 -21 192 -25 249 -6 102 34 150 134 109 229 -20 47
-59 79 -166 136 -111 60 -140 88 -140 137 0 47 14 70 53 91 41 21 148 21 200
0 l37 -16 0 40 c0 50 -20 59 -134 59 -70 0 -91 -4 -137 -27z"/>
<path d="M7830 12705 l0 -335 41 0 40 0 -3 285 c-3 281 -3 285 15 243 9 -24
66 -152 125 -285 88 -200 110 -243 127 -243 17 0 40 47 139 273 66 149 122
277 125 284 3 6 5 -116 3 -273 l-3 -284 40 0 41 0 0 336 0 335 -51 -3 -51 -3
-112 -250 c-61 -137 -116 -260 -121 -272 -9 -19 -27 17 -130 252 l-119 275
-53 0 -53 0 0 -335z"/>
<path d="M8850 12705 l0 -335 175 0 175 0 0 35 0 35 -135 0 -135 0 0 120 0
120 120 0 120 0 0 35 0 35 -120 0 -120 0 0 110 0 110 130 0 130 0 0 35 0 35
-170 0 -170 0 0 -335z"/>
<path d="M9490 12705 l0 -335 40 0 40 0 0 146 0 146 55 -4 c33 -3 66 -13 82
-24 14 -11 59 -74 100 -142 l75 -122 45 0 45 0 -23 38 c-76 124 -149 231 -173
250 l-27 21 38 20 c117 60 146 200 59 287 -43 43 -89 54 -233 54 l-123 0 0
-335z m271 249 c62 -32 74 -123 23 -183 -30 -36 -77 -51 -156 -51 l-58 0 0
125 0 125 80 0 c54 0 91 -5 111 -16z"/>
<path d="M10960 12705 l0 -335 40 0 40 0 0 335 0 335 -40 0 -40 0 0 -335z"/>
<path d="M15910 12705 l0 -335 40 0 40 0 0 287 0 286 186 -286 186 -287 49 0
49 0 0 335 0 335 -40 0 -41 0 3 -285 c2 -157 2 -285 1 -285 -1 0 -83 128 -184
285 l-182 285 -54 0 -53 0 0 -335z"/>
<path d="M17450 12802 c0 -262 8 -314 57 -373 40 -47 96 -69 178 -69 90 0 137
14 182 53 71 63 77 90 81 375 l4 252 -41 0 -41 0 0 -243 c0 -232 -1 -245 -22
-287 -30 -58 -76 -85 -148 -85 -72 0 -118 27 -147 85 -22 42 -23 55 -23 287
l0 243 -40 0 -40 0 0 -238z"/>
<path d="M18270 12705 l0 -335 175 0 175 0 0 35 0 35 -135 0 -135 0 0 300 0
300 -40 0 -40 0 0 -335z"/>
<path d="M18750 13005 l0 -35 95 0 95 0 0 -300 0 -300 40 0 40 0 0 300 0 300
95 0 95 0 0 35 0 35 -230 0 -230 0 0 -35z"/>
<path d="M20310 12705 l0 -335 40 0 40 0 0 146 0 146 55 -4 c33 -3 66 -13 82
-24 14 -11 59 -74 100 -142 l75 -122 45 0 45 0 -23 38 c-76 124 -149 231 -173
250 l-27 21 38 20 c117 60 146 200 59 287 -43 43 -89 54 -233 54 l-123 0 0
-335z m271 249 c62 -32 74 -123 23 -183 -30 -36 -77 -51 -156 -51 l-58 0 0
125 0 125 80 0 c54 0 91 -5 111 -16z"/>
<path d="M21040 12705 l0 -335 40 0 40 0 0 335 0 335 -40 0 -40 0 0 -335z"/>
<path d="M21506 12712 c-69 -181 -126 -332 -126 -336 0 -4 19 -6 41 -4 l41 3
32 90 32 90 145 3 146 3 34 -93 34 -93 44 -3 c25 -2 42 1 40 7 -2 5 -60 156
-129 335 l-125 326 -41 0 -41 0 -127 -328z m232 58 l50 -135 -110 -3 c-61 -1
-113 -1 -115 2 -3 2 21 78 53 167 50 139 59 158 65 133 4 -16 29 -90 57 -164z"/>
<path d="M24950 12705 l0 -335 180 0 180 0 0 35 0 35 -140 0 -140 0 0 120 0
120 120 0 120 0 0 35 0 35 -120 0 -120 0 0 110 0 110 130 0 130 0 0 35 0 35
-170 0 -170 0 0 -335z"/>
<path d="M25590 12705 l0 -335 40 0 40 0 0 146 0 146 55 -4 c34 -3 67 -13 83
-25 15 -10 60 -74 101 -141 l74 -122 43 0 c24 0 44 2 44 5 0 19 -177 278 -197
289 l-26 13 47 22 c25 13 55 34 66 48 49 63 50 167 2 224 -47 56 -90 69 -239
69 l-133 0 0 -335z m296 234 c33 -34 42 -94 20 -141 -24 -50 -67 -71 -158 -76
l-78 -5 0 128 0 127 95 -4 c86 -3 97 -5 121 -29z"/>
<path d="M26250 13037 c0 -2 54 -152 120 -332 66 -181 120 -330 120 -332 0 -2
20 -3 44 -3 l44 0 112 303 c62 166 118 317 126 335 l13 32 -42 0 -42 0 -104
-292 -105 -293 -57 165 c-31 91 -77 221 -101 290 l-43 125 -43 3 c-23 2 -42 1
-42 -1z"/>
<path d="M27080 12705 l0 -335 40 0 40 0 0 335 0 335 -40 0 -40 0 0 -335z"/>
<path d="M30180 12705 l0 -335 181 0 180 0 -3 33 -3 32 -137 3 -138 3 0 119 0
120 120 0 120 0 0 35 0 35 -120 0 -120 0 0 110 0 110 130 0 130 0 0 35 0 35
-170 0 -170 0 0 -335z"/>
<path d="M30820 12705 l0 -335 40 0 40 0 1 283 c1 155 3 274 6 265 2 -10 57
-136 122 -280 91 -203 122 -264 137 -266 20 -3 42 42 223 458 l46 105 -4 -282
-3 -283 41 0 41 0 0 335 0 335 -49 0 -48 0 -111 -247 c-61 -137 -116 -261
-122 -277 -10 -28 -14 -22 -89 150 -42 98 -97 223 -121 277 l-43 97 -53 0 -54
0 0 -335z"/>
<path d="M32192 13008 l3 -33 98 -3 97 -3 0 -299 0 -300 35 0 35 0 0 300 0
299 98 3 97 3 3 33 3 32 -236 0 -236 0 3 -32z"/>
<path d="M32920 12705 l0 -335 40 0 40 0 0 335 0 335 -40 0 -40 0 0 -335z"/>
</g>
</svg>
